<svg width="322" height="107" viewBox="0 0 322 107" fill="none" xmlns="http://www.w3.org/2000/svg">
<g clip-path="url(#clip0_301_81)">
<path d="M250.779 23.2372V44.6864C253.152 40.2958 256.86 38.1005 261.904 38.1005C267.066 38.1005 271.145 40.1849 274.141 44.3526C277.138 48.5209 278.636 54.2391 278.636 61.5074C278.636 68.5093 277.095 74.1607 274.011 78.4615C270.928 82.7636 266.481 84.9143 260.671 84.9143C257.647 84.9143 255.186 84.3951 253.289 83.3573C251.391 82.3189 249.48 80.2274 247.553 77.0822C246.716 77.9435 245.729 80.2421 244.593 83.9797H237.518V23.2372H250.779ZM250.779 66.1802C250.779 69.3254 251.438 71.6978 252.759 73.3C254.078 74.9022 255.658 75.703 257.498 75.703C259.693 75.703 261.503 74.7315 262.927 72.7884C264.35 70.8454 265.063 67.0695 265.063 61.4634C265.063 55.0845 264.329 51.0799 262.86 49.4484C261.391 47.8169 259.723 47.0008 257.854 47.0008C255.688 47.0008 253.967 47.9208 252.692 49.76C251.416 51.5998 250.778 54.2098 250.778 57.592V66.1802H250.779Z" fill="#08090A"/>
<path d="M229.152 63.732H200.227C200.197 64.5334 200.182 65.231 200.182 65.8235C200.182 69.0272 201.035 71.4462 202.742 73.077C204.448 74.7098 206.487 75.5253 208.86 75.5253C213.28 75.5253 215.935 73.1669 216.826 68.4501L228.841 69.3394C225.488 79.7235 218.68 84.9143 208.415 84.9143C203.935 84.9143 200.13 84.0167 197 82.2221C193.87 80.4275 191.289 77.8091 189.257 74.3677C187.225 70.927 186.209 66.8026 186.209 61.9966C186.209 54.8469 188.248 49.077 192.328 44.6864C196.407 40.2958 201.651 38.1005 208.058 38.1005C213.844 38.1005 218.805 40.1403 222.943 44.2188C227.082 48.2985 229.152 54.8036 229.152 63.732ZM200.182 56.0337H216.158C215.743 49.8632 213.206 46.7779 208.549 46.7779C203.565 46.7779 200.776 49.8638 200.182 56.0337Z" fill="#08090A"/>
<path d="M183.451 39.035L169.867 83.9803H158.195L151.077 55.0552L143.975 83.9803H132.904L118.97 39.035H132.8L140.13 66.4917L147.009 39.035H159.003L165.584 66.6695L173.226 39.035H183.451V39.035Z" fill="#08090A"/>
<path d="M104.163 54.2793L118.792 83.9797H104.157L94.7737 63.6192L86.9735 72.5852V83.9797H74.4693V23.2372H86.9735V59.6382L88.9293 57.1906C89.7588 56.063 90.4551 55.159 91.0182 54.4761L104.131 39.0344H117.056L104.163 54.2793Z" fill="#08090A"/>
<path d="M63.5672 23.2607V35.2521H50.3061V23.2607H63.5672ZM63.5672 39.035V83.9803H50.3061V39.035H63.5672Z" fill="#08090A"/>
<path d="M44.8325 23.2372V35.2522H29.7915V83.9797H15.3735V35.2522H0.243332V23.2372H44.8325Z" fill="#08090A"/>
<path d="M265.178 34.673L274.275 24.5163L322.092 0.904297L268.084 19.5772L265.178 34.673Z" fill="#2692C0"/>
<path d="M265.178 34.673L322.092 0.904297L274.275 24.5163L265.178 34.673Z" fill="#282D35"/>
<path d="M296.145 46.5739L322.092 0.904297L274.275 24.5163L296.145 46.5739Z" fill="#3EBDED"/>
<path d="M268.084 19.5772L322.092 0.904297H243.889L268.084 19.5772Z" fill="#3EBDED"/>
</g>
<defs>
<clipPath id="clip0_301_81">
<rect width="322" height="107.009" fill="white"/>
</clipPath>
</defs>
</svg>
